<?xml version="1.0" encoding="UTF-8" standalone="no"?>
<!DOCTYPE svg PUBLIC "-//W3C//DTD SVG 1.1//EN" "http://www.w3.org/Graphics/SVG/1.1/DTD/svg11.dtd">
<svg width="100%" height="100%" viewBox="0 0 222 261" version="1.1" xmlns="http://www.w3.org/2000/svg" xmlns:xlink="http://www.w3.org/1999/xlink" xml:space="preserve" xmlns:serif="http://www.serif.com/" style="fill-rule:evenodd;clip-rule:evenodd;stroke-linejoin:round;stroke-miterlimit:2;">
    <g transform="matrix(1,0,0,1,-302.846,-178.275)">
        <g transform="matrix(1.00935,0,0,1.42593,-3.36449,-184)">
            <ellipse cx="413.5" cy="405" rx="53.5" ry="27" style="fill:white;"/>
        </g>
        <g transform="matrix(4.16667,0,0,4.16667,307.004,328.667)">
            <path d="M0,-15.384C0,-15.384 2.231,-4.134 1.5,6.116C1.5,6.116 -1.625,9.241 1.75,14.303L1.47,19.775L50.265,19.775L49.984,14.303C53.359,9.241 50.234,6.116 50.234,6.116C49.503,-4.134 51.734,-15.384 51.734,-15.384L50.297,-16.446C50.609,-17.009 51.395,-20.475 51.395,-20.475L50.443,-32.02C47.59,-30.843 45.75,-35.159 45.75,-35.159L5.984,-35.159C5.984,-35.159 4.145,-30.843 1.291,-32.02L0.34,-20.475C0.34,-20.475 1.125,-17.009 1.437,-16.446" style="fill:white;fill-rule:nonzero;stroke:white;stroke-width:0.24px;"/>
        </g>
        <g transform="matrix(4.16667,0,0,4.16667,315.225,402.933)">
            <path d="M0,-44.965C-0.641,-46.516 -0.945,-49.804 -0.945,-49.804L-0.922,-50.083L-0.509,-50.211C0.459,-50.511 3.216,-51.718 3.216,-53.274L3.216,-53.918L44.094,-53.918L44.094,-53.274C44.094,-51.718 46.85,-50.511 47.818,-50.211L48.23,-50.083L48.254,-49.804C48.254,-49.804 47.95,-46.516 47.309,-44.965L47.021,-49.12C45.954,-49.511 43.361,-50.652 42.881,-52.628L4.429,-52.628C3.948,-50.652 1.355,-49.511 0.289,-49.12L0,-44.965ZM-1.444,-1.696L-1.445,-1.694C-1.39,-1.694 -1.324,-1.69 -1.264,-1.686C-1.212,-2.419 -1.158,-3.247 -1.107,-4.156C-1.857,-5.323 -2.436,-6.636 -2.558,-8.024C-2.709,-9.748 -2.132,-11.345 -0.859,-12.778C-0.859,-13.03 -0.862,-13.288 -0.864,-13.545C-0.864,-13.545 -1.771,-30.474 -2.604,-33.179L-2.711,-33.525L-2.401,-33.716C-2.387,-33.725 -1.665,-34.184 -0.956,-34.943C-0.956,-34.943 -0.21,-35.61 0.066,-36.414C0.372,-37.071 0.527,-37.818 0.34,-38.624C0.309,-38.696 -0.039,-39.515 -0.393,-40.572L-0.562,-38.696C-0.386,-38.179 -0.236,-37.626 -0.095,-37.06C-0.292,-36.657 -0.663,-36.02 -1.123,-35.729C-1.318,-36.678 -1.542,-37.591 -1.826,-38.408L-1.873,-38.538L-1.061,-47.592C-1.071,-46.239 -0.149,-43.298 -0.149,-43.298C0.156,-41.448 1.193,-39.009 1.227,-38.916C1.59,-37.378 1.061,-36.057 0.34,-35.048C1.423,-28.957 0.368,-7.229 0.232,-4.702C-0.271,-5.34 -0.727,-6.372 -0.974,-6.986C-0.923,-8.302 -0.887,-9.725 -0.869,-11.199C-1.46,-10.23 -1.719,-9.196 -1.623,-8.109C-1.514,-6.851 -0.961,-5.638 -0.246,-4.552C-0.21,-4.499 -0.178,-4.451 -0.145,-4.403C-0.048,-4.261 0.052,-4.122 0.153,-3.983C0.176,-3.953 0.188,-3.937 0.188,-3.937L0.188,-3.935C1.766,-1.819 3.811,-0.324 3.966,-0.213C4.742,0.196 5.512,0.673 6.257,1.173L6.269,1.173L6.434,1.292C6.954,1.645 7.458,2.011 7.943,2.379L8.061,2.464L8.054,2.464C8.986,3.175 9.838,3.886 10.539,4.504C11.452,4.514 12.35,4.577 13.141,4.652C12.316,3.993 11.609,3.259 11.045,2.464L8.802,2.464L7.168,1.173L8.69,1.173C8.346,0.154 8.167,-0.757 8.111,-1.563C7.57,-0.827 6.416,0.283 4.687,-0.381C5.079,-0.269 6.689,-0.034 8.135,-3.068L8.139,-3.052C8.428,-5.458 9.796,-6.55 9.796,-6.55C8.376,-3.759 8.705,-1.282 9.166,0.214C9.174,0.223 9.463,0.624 10.044,0.633C9.692,-0.254 9.493,-1.185 9.493,-2.152C9.493,-7.773 15.847,-12.343 23.654,-12.343C31.463,-12.343 37.816,-7.773 37.816,-2.152C37.816,-1.185 37.617,-0.254 37.266,0.633C37.847,0.624 38.135,0.223 38.143,0.214C38.604,-1.282 38.934,-3.759 37.514,-6.55C37.514,-6.55 38.882,-5.458 39.17,-3.052L39.174,-3.068C40.62,-0.034 42.23,-0.269 42.623,-0.381C40.894,0.283 39.739,-0.827 39.198,-1.563C39.143,-0.757 38.964,0.154 38.619,1.173L40.141,1.173L38.507,2.464L36.265,2.464C35.7,3.259 34.993,3.993 34.169,4.652C34.959,4.577 35.857,4.514 36.771,4.504C37.472,3.886 38.323,3.175 39.256,2.464L39.249,2.464L39.366,2.379C39.852,2.011 40.354,1.645 40.876,1.292L41.041,1.173L41.053,1.173C41.798,0.673 42.567,0.196 43.344,-0.213C43.498,-0.324 45.543,-1.819 47.121,-3.935L47.121,-3.937C47.121,-3.937 47.134,-3.953 47.156,-3.983C47.258,-4.122 47.357,-4.261 47.454,-4.403C47.487,-4.451 47.52,-4.499 47.555,-4.552C48.271,-5.638 48.822,-6.851 48.932,-8.109C49.028,-9.196 48.77,-10.23 48.179,-11.199C48.196,-9.725 48.231,-8.302 48.283,-6.986C48.036,-6.372 47.58,-5.34 47.077,-4.702C46.94,-7.229 45.886,-28.957 46.97,-35.048C46.249,-36.057 45.72,-37.378 46.083,-38.916C46.115,-39.009 47.153,-41.448 47.459,-43.298C47.459,-43.298 48.381,-46.239 48.369,-47.592L49.182,-38.538L49.136,-38.408C48.852,-37.591 48.628,-36.678 48.433,-35.729C47.973,-36.02 47.602,-36.657 47.404,-37.06C47.545,-37.626 47.695,-38.179 47.871,-38.696L47.702,-40.572C47.349,-39.515 47.001,-38.696 46.97,-38.624C46.782,-37.818 46.937,-37.071 47.243,-36.414C47.52,-35.61 48.265,-34.943 48.265,-34.943C48.975,-34.184 49.696,-33.725 49.711,-33.716L50.021,-33.525L49.913,-33.179C49.081,-30.474 48.174,-13.545 48.174,-13.545C48.172,-13.288 48.169,-13.03 48.169,-12.778C49.441,-11.345 50.019,-9.748 49.867,-8.024C49.744,-6.636 49.166,-5.323 48.417,-4.156C48.467,-3.247 48.521,-2.419 48.572,-1.686C48.634,-1.69 48.699,-1.694 48.755,-1.694L48.754,-1.696C49.732,-1.777 50.589,-1.234 50.173,-0.55C49.758,0.136 49.047,0.21 49.047,0.21C49.047,0.21 49.316,0.039 49.537,-0.353C49.647,-0.55 49.561,-0.641 49.447,-0.686C49.365,-0.7 49.285,-0.714 49.196,-0.722L49.194,-0.722C49.014,-0.737 48.825,-0.741 48.643,-0.739C48.76,0.781 48.854,1.699 48.86,1.749L48.936,2.464L40.839,2.464C39.877,3.151 38.971,3.872 38.187,4.531C41.029,4.506 42.813,5.922 42.813,5.922L41.003,6.64L41.004,6.639C40.13,7.009 38.745,7.536 37.489,7.784C37.498,7.786 37.509,7.789 37.509,7.789C37.432,7.803 37.366,7.813 37.291,7.826C37.236,7.836 37.183,7.847 37.13,7.854C30.782,8.953 30.119,8.348 30.119,8.348C32.85,8.348 34.572,6.567 34.572,6.567L34.729,6.408C34.794,6.345 35.136,6.001 35.683,5.488C35.279,5.51 34.883,5.538 34.499,5.57L34.494,5.57C34.396,5.579 34.304,5.589 34.208,5.598C34.018,5.62 33.743,5.665 33.433,5.745C33.253,5.79 33.058,5.85 32.858,5.922C32.827,5.933 32.797,5.944 32.766,5.957C32.559,6.036 32.346,6.131 32.14,6.246C32.115,6.259 32.093,6.277 32.069,6.292C31.895,6.392 31.729,6.514 31.566,6.646C31.516,6.688 31.467,6.73 31.418,6.774C31.239,6.94 31.068,7.121 30.926,7.337L25.739,7.929L25.78,7.912C25.085,7.989 24.378,8.041 23.654,8.041C22.932,8.041 22.225,7.989 21.529,7.912L21.57,7.929L16.383,7.337C16.238,7.119 16.066,6.936 15.884,6.77C15.837,6.726 15.788,6.685 15.739,6.642C15.572,6.507 15.398,6.382 15.22,6.277C15.199,6.266 15.181,6.252 15.161,6.241C14.952,6.126 14.741,6.032 14.535,5.953C14.495,5.938 14.457,5.924 14.42,5.911C14.223,5.842 14.028,5.78 13.852,5.737C13.55,5.664 13.287,5.62 13.102,5.598C13.006,5.589 12.913,5.579 12.816,5.57L12.811,5.57C12.427,5.538 12.03,5.51 11.627,5.488C12.174,6.001 12.516,6.345 12.58,6.408L12.737,6.567C12.737,6.567 14.459,8.348 17.189,8.348C17.189,8.348 16.527,8.953 10.18,7.854C10.126,7.847 10.073,7.836 10.019,7.826C9.943,7.813 9.877,7.803 9.801,7.789C9.801,7.789 9.812,7.786 9.82,7.784C8.563,7.536 7.179,7.009 6.306,6.639L6.307,6.64L4.497,5.922C4.497,5.922 6.28,4.506 9.123,4.531C8.339,3.872 7.432,3.151 6.471,2.464L-1.627,2.464L-1.551,1.749C-1.545,1.699 -1.45,0.781 -1.333,-0.739C-1.517,-0.741 -1.704,-0.737 -1.885,-0.722L-1.887,-0.722C-1.976,-0.714 -2.056,-0.7 -2.138,-0.686C-2.251,-0.641 -2.339,-0.55 -2.229,-0.353C-2.008,0.039 -1.739,0.21 -1.739,0.21C-1.739,0.21 -2.448,0.136 -2.863,-0.55C-3.28,-1.234 -2.423,-1.777 -1.444,-1.696M47.505,-21.644C47.858,-25.366 48.33,-30.982 48.92,-33.12C48.708,-33.271 48.408,-33.504 48.08,-33.804C47.564,-30.319 47.472,-24.589 47.505,-21.644M46.093,-1.338C46.496,-1.447 46.89,-1.519 47.277,-1.565C47.255,-1.87 47.231,-2.201 47.209,-2.54C46.835,-2.102 46.457,-1.696 46.093,-1.338M42.795,1.173L47.506,1.173C47.464,0.739 47.408,0.118 47.348,-0.643C45.938,-0.474 44.348,0.241 42.795,1.173M35.612,6.856C35.627,6.868 35.643,6.879 35.661,6.889C36.355,7.28 38.641,6.595 40.465,5.847C39.603,5.556 38.392,5.451 37.127,5.449C36.419,6.08 35.888,6.585 35.612,6.856M23.654,6.633C28.227,6.633 32.234,4.961 34.486,2.464C34.668,2.262 34.839,2.055 34.999,1.845C35.016,1.822 35.03,1.798 35.047,1.776C35.191,1.58 35.329,1.381 35.452,1.175C36.065,0.148 36.409,-0.975 36.409,-2.152C36.409,-6.995 30.687,-10.937 23.654,-10.937C16.622,-10.937 10.9,-6.995 10.9,-2.152C10.9,-0.975 11.244,0.148 11.857,1.175C11.98,1.381 12.117,1.58 12.264,1.778C12.279,1.8 12.294,1.822 12.311,1.845C12.471,2.055 12.642,2.262 12.822,2.464C15.074,4.961 19.082,6.633 23.654,6.633M10.183,5.449C8.918,5.451 7.707,5.556 6.845,5.847C8.669,6.595 10.953,7.28 11.648,6.889C11.666,6.879 11.683,6.868 11.697,6.856C11.421,6.585 10.891,6.08 10.183,5.449M0.031,-1.565C0.42,-1.519 0.812,-1.447 1.217,-1.338C0.853,-1.696 0.474,-2.102 0.1,-2.54C0.078,-2.201 0.055,-1.87 0.031,-1.565M-0.196,1.173L4.515,1.173C2.962,0.241 1.371,-0.474 -0.038,-0.643C-0.1,0.118 -0.154,0.739 -0.196,1.173M-0.195,-21.644C-0.162,-24.589 -0.256,-30.319 -0.771,-33.804C-1.099,-33.504 -1.399,-33.271 -1.61,-33.12C-1.021,-30.982 -0.549,-25.366 -0.195,-21.644" style="fill:rgb(35,31,32);fill-rule:nonzero;"/>
        </g>
        <g transform="matrix(4.16667,0,0,4.16667,172,-713.905)">
            <text x="41.531px" y="223.855px" style="font-family:'Arial-BoldMT', 'Arial', sans-serif;font-weight:700;font-size:6.5px;fill:rgb(35,31,32);">D<tspan x="45.826px 49.762px 53.698px 57.27px 61.206px 65.501px 66.908px 70.48px " y="223.855px 223.855px 223.855px 223.855px 223.855px 223.855px 223.855px 223.855px ">EXTERITY</tspan></text>
        </g>
    </g>
</svg>
